<mxfile host="app.diagrams.net" agent="Mozilla/5.0 (Windows NT 10.0; Win64; x64) AppleWebKit/537.36 (KHTML, like Gecko) Chrome/137.0.0.0 Safari/537.36 Edg/137.0.0.0" version="27.1.1">
  <diagram name="Page-1" id="2c0d36ab-eaac-3732-788b-9136903baeff">
    <mxGraphModel dx="909" dy="486" grid="1" gridSize="10" guides="1" tooltips="1" connect="1" arrows="1" fold="1" page="1" pageScale="1.5" pageWidth="1169" pageHeight="827" background="none" math="0" shadow="0">
      <root>
        <mxCell id="0" />
        <mxCell id="1" parent="0" />
        <mxCell id="14GlSNyqoGo1CUn9k8tp-161" value="" style="rounded=0;whiteSpace=wrap;html=1;fillColor=none;" vertex="1" parent="1">
          <mxGeometry x="320" y="540" width="600" height="460" as="geometry" />
        </mxCell>
        <mxCell id="14GlSNyqoGo1CUn9k8tp-152" style="edgeStyle=orthogonalEdgeStyle;rounded=0;orthogonalLoop=1;jettySize=auto;html=1;exitX=0.5;exitY=1;exitDx=0;exitDy=0;entryX=0.5;entryY=0;entryDx=0;entryDy=0;" edge="1" parent="1" source="14GlSNyqoGo1CUn9k8tp-131" target="14GlSNyqoGo1CUn9k8tp-136">
          <mxGeometry relative="1" as="geometry" />
        </mxCell>
        <mxCell id="14GlSNyqoGo1CUn9k8tp-131" value="MERCADINHO ONLINE" style="rounded=0;whiteSpace=wrap;html=1;" vertex="1" parent="1">
          <mxGeometry x="560" y="560" width="120" height="60" as="geometry" />
        </mxCell>
        <mxCell id="14GlSNyqoGo1CUn9k8tp-158" style="edgeStyle=orthogonalEdgeStyle;rounded=0;orthogonalLoop=1;jettySize=auto;html=1;exitX=0.336;exitY=1.025;exitDx=0;exitDy=0;entryX=0.578;entryY=-0.003;entryDx=0;entryDy=0;exitPerimeter=0;entryPerimeter=0;" edge="1" parent="1" source="14GlSNyqoGo1CUn9k8tp-135" target="14GlSNyqoGo1CUn9k8tp-156">
          <mxGeometry relative="1" as="geometry">
            <Array as="points">
              <mxPoint x="440" y="810" />
              <mxPoint x="439" y="810" />
            </Array>
          </mxGeometry>
        </mxCell>
        <mxCell id="14GlSNyqoGo1CUn9k8tp-135" value="HOME" style="rounded=0;whiteSpace=wrap;html=1;" vertex="1" parent="1">
          <mxGeometry x="400" y="680" width="120" height="60" as="geometry" />
        </mxCell>
        <mxCell id="14GlSNyqoGo1CUn9k8tp-151" style="edgeStyle=orthogonalEdgeStyle;rounded=0;orthogonalLoop=1;jettySize=auto;html=1;exitX=0.5;exitY=1;exitDx=0;exitDy=0;entryX=0.5;entryY=0;entryDx=0;entryDy=0;" edge="1" parent="1" source="14GlSNyqoGo1CUn9k8tp-136" target="14GlSNyqoGo1CUn9k8tp-138">
          <mxGeometry relative="1" as="geometry" />
        </mxCell>
        <mxCell id="14GlSNyqoGo1CUn9k8tp-136" value="CARRINHO" style="rounded=0;whiteSpace=wrap;html=1;" vertex="1" parent="1">
          <mxGeometry x="560" y="680" width="120" height="60" as="geometry" />
        </mxCell>
        <mxCell id="14GlSNyqoGo1CUn9k8tp-137" value="HISTÓRICO" style="rounded=0;whiteSpace=wrap;html=1;" vertex="1" parent="1">
          <mxGeometry x="720" y="680" width="120" height="60" as="geometry" />
        </mxCell>
        <mxCell id="14GlSNyqoGo1CUn9k8tp-155" style="edgeStyle=orthogonalEdgeStyle;rounded=0;orthogonalLoop=1;jettySize=auto;html=1;exitX=0.5;exitY=1;exitDx=0;exitDy=0;entryX=0.5;entryY=0;entryDx=0;entryDy=0;" edge="1" parent="1" source="14GlSNyqoGo1CUn9k8tp-138" target="14GlSNyqoGo1CUn9k8tp-154">
          <mxGeometry relative="1" as="geometry" />
        </mxCell>
        <mxCell id="14GlSNyqoGo1CUn9k8tp-138" value="PAGAMENTO" style="rounded=0;whiteSpace=wrap;html=1;" vertex="1" parent="1">
          <mxGeometry x="560" y="800" width="120" height="60" as="geometry" />
        </mxCell>
        <mxCell id="14GlSNyqoGo1CUn9k8tp-139" value="REGISTRO DE COMPRA" style="rounded=0;whiteSpace=wrap;html=1;" vertex="1" parent="1">
          <mxGeometry x="757" y="850" width="120" height="60" as="geometry" />
        </mxCell>
        <mxCell id="14GlSNyqoGo1CUn9k8tp-148" value="" style="edgeStyle=segmentEdgeStyle;endArrow=classic;html=1;curved=0;rounded=0;endSize=8;startSize=8;exitX=0;exitY=0.5;exitDx=0;exitDy=0;" edge="1" parent="1" source="14GlSNyqoGo1CUn9k8tp-131">
          <mxGeometry width="50" height="50" relative="1" as="geometry">
            <mxPoint x="410" y="730" as="sourcePoint" />
            <mxPoint x="460" y="680" as="targetPoint" />
            <Array as="points">
              <mxPoint x="500" y="590" />
              <mxPoint x="500" y="640" />
              <mxPoint x="460" y="640" />
            </Array>
          </mxGeometry>
        </mxCell>
        <mxCell id="14GlSNyqoGo1CUn9k8tp-149" value="" style="edgeStyle=segmentEdgeStyle;endArrow=classic;html=1;curved=0;rounded=0;endSize=8;startSize=8;exitX=0;exitY=0.5;exitDx=0;exitDy=0;entryX=0.5;entryY=0;entryDx=0;entryDy=0;" edge="1" parent="1" target="14GlSNyqoGo1CUn9k8tp-137">
          <mxGeometry width="50" height="50" relative="1" as="geometry">
            <mxPoint x="680" y="590" as="sourcePoint" />
            <mxPoint x="580" y="680" as="targetPoint" />
            <Array as="points">
              <mxPoint x="750" y="590" />
              <mxPoint x="750" y="640" />
              <mxPoint x="780" y="640" />
            </Array>
          </mxGeometry>
        </mxCell>
        <mxCell id="14GlSNyqoGo1CUn9k8tp-150" value="" style="edgeStyle=segmentEdgeStyle;endArrow=classic;html=1;curved=0;rounded=0;endSize=8;startSize=8;exitX=0.75;exitY=1;exitDx=0;exitDy=0;" edge="1" parent="1" source="14GlSNyqoGo1CUn9k8tp-137">
          <mxGeometry width="50" height="50" relative="1" as="geometry">
            <mxPoint x="760" y="741" as="sourcePoint" />
            <mxPoint x="810" y="850" as="targetPoint" />
            <Array as="points">
              <mxPoint x="810" y="850" />
            </Array>
          </mxGeometry>
        </mxCell>
        <mxCell id="14GlSNyqoGo1CUn9k8tp-154" value="RESUMO DE COMPRA" style="rounded=0;whiteSpace=wrap;html=1;" vertex="1" parent="1">
          <mxGeometry x="560" y="910" width="120" height="60" as="geometry" />
        </mxCell>
        <mxCell id="14GlSNyqoGo1CUn9k8tp-156" value="CATÁLOGO" style="rounded=0;whiteSpace=wrap;html=1;" vertex="1" parent="1">
          <mxGeometry x="370" y="840" width="120" height="60" as="geometry" />
        </mxCell>
      </root>
    </mxGraphModel>
  </diagram>
</mxfile>
